<?xml version="1.0" encoding="iso-8859-1"?>
<!-- Generator: Adobe Illustrator 19.0.0, SVG Export Plug-In . SVG Version: 6.00 Build 0)  -->
<svg version="1.1" id="Layer_1" xmlns="http://www.w3.org/2000/svg" xmlns:xlink="http://www.w3.org/1999/xlink" x="0px" y="0px"
	 viewBox="0 0 512 512" style="enable-background:new 0 0 512 512;" xml:space="preserve">
<g>
	<g>
		<path d="M485.601,184.369c-2.667-4.319-8.104-6.019-12.758-3.986l-41.544,18.139l3.029-14.885
			c3.788-18.615-1.397-37.326-14.227-51.335c-12.829-14.008-31.011-20.816-49.887-18.677l-69.128,7.837
			c47.589-28.324,112.111-43.045,112.902-43.223c4.353-0.974,7.568-4.664,7.937-9.11c0.369-4.444-2.193-8.614-6.326-10.293
			c-1.484-0.604-37.361-14.493-123.574,9.987c-48.24,13.698-80.766,43.022-100.026,66.132
			c-24.128,5.601-46.708,16.538-66.124,32.179c-23.977,19.315-42.042,44.83-52.239,73.784
			c-11.214,31.841-30.469,59.883-55.683,81.095l-14.32,12.048c-2.784,2.344-4.11,5.993-3.478,9.577
			c0.631,3.584,3.125,6.56,6.544,7.807l1.951,0.713c28.454,10.399,55.244,26.795,79.626,48.735
			c14.701,13.228,33.703,20.513,53.506,20.513h103.417l21.11,21.11c9.746,9.745,22.703,15.112,36.485,15.112
			c13.783,0,26.74-5.368,36.485-15.112c3.983-3.983,3.983-10.441,0-14.425l-11.336-11.336
			c35.063-10.502,62.745-37.929,73.396-73.407l71.504,31.221c1.323,0.577,2.709,0.854,4.077,0.854c3.444,0,6.772-1.749,8.682-4.839
			C502.872,342.633,512,310.437,512,277.478C512,244.518,502.872,212.322,485.601,184.369z M297.597,88.45
			c19.041-5.408,35.341-8.818,49.111-10.886c-29.59,11.173-63.349,27.282-86.435,48.528l-35.707,4.048
			C242.041,113.821,266.114,97.389,297.597,88.45z M302.796,437.234c-8.334,0-16.169-3.245-22.061-9.138l-41.82-41.82l14.849-14.849
			l62.681,62.68C312.246,436.153,307.605,437.234,302.796,437.234z M383.826,329.508c-7.428,36.499-36.433,64.268-72.845,70.288
			l-50.005-50.005c-3.984-3.982-10.44-3.982-14.425,0l-29.273,29.273c-3.983,3.983-3.983,10.441,0,14.425l7.523,7.523h-37.104
			c11.141-11.229,19.177-25.446,22.9-41.284c1.29-5.483-2.11-10.973-7.593-12.263c-5.476-1.292-10.974,2.109-12.263,7.593
			c-4.855,20.644-19.273,37.7-38.732,45.954h-10.227c-14.756,0-28.913-5.426-39.863-15.277
			c-22.268-20.037-46.462-35.817-72.099-47.044l1.264-1.064c28-23.557,49.367-54.653,61.79-89.927
			c18.295-51.949,65.496-89.525,120.249-95.731l159.387-18.071c12.323-1.399,24.178,3.045,32.547,12.184
			c8.369,9.14,11.753,21.347,9.282,33.49L383.826,329.508z M472.668,352.238l-66.723-29.133l20.382-100.154l46.34-20.233
			c12.411,22.88,18.934,48.546,18.934,74.76S485.078,329.358,472.668,352.238z"/>
	</g>
</g>
<g>
	<g>
		<path d="M209.936,317.489c-0.851-3.162-1.892-6.314-3.093-9.37c-2.062-5.242-7.983-7.818-13.226-5.756
			c-5.241,2.062-7.819,7.984-5.756,13.226c0.924,2.348,1.724,4.77,2.376,7.198c1.225,4.553,5.343,7.554,9.843,7.554
			c0.876,0,1.768-0.114,2.655-0.353C208.174,328.524,211.397,322.928,209.936,317.489z"/>
	</g>
</g>
<g>
	<g>
		<path d="M124.562,260.256c-7.051,0-12.787,5.736-12.787,12.787s5.736,12.787,12.787,12.787c7.05,0,12.786-5.736,12.786-12.787
			S131.612,260.256,124.562,260.256z"/>
	</g>
</g>
<g>
</g>
<g>
</g>
<g>
</g>
<g>
</g>
<g>
</g>
<g>
</g>
<g>
</g>
<g>
</g>
<g>
</g>
<g>
</g>
<g>
</g>
<g>
</g>
<g>
</g>
<g>
</g>
<g>
</g>
</svg>
