<svg width="1509" height="352" viewBox="0 0 1509 352" fill="none" xmlns="http://www.w3.org/2000/svg">
<path d="M273.573 0.0434558C260.703 0.0118317 247.955 2.53372 236.067 7.46308C224.178 12.3924 213.386 19.6313 204.314 28.7606L185.817 47.2578L167.32 28.7606C153.617 15.0326 136.148 5.68066 117.126 1.88963C98.1034 -1.90139 78.3838 0.0390725 60.4652 7.46518C42.5467 14.8913 27.2355 27.4689 16.4715 43.6045C5.70752 59.7401 -0.024947 78.7075 0.000367916 98.104C-0.0469112 118.99 4.46306 139.636 13.2157 158.6C21.9683 177.564 34.7529 194.39 50.6776 207.905L127.538 273.701C128.047 274.797 128.785 275.772 129.703 276.559C130.621 277.346 131.698 277.927 132.859 278.262L180.327 318.972C181.857 320.281 183.804 321 185.817 321C187.83 321 189.777 320.281 191.307 318.972L320.956 207.567C336.881 194.052 349.666 177.226 358.418 158.262C367.171 139.298 371.681 118.653 371.634 97.7661C371.5 71.8312 361.115 47.0016 342.744 28.6943C324.374 10.387 299.508 0.0877115 273.573 0.0434558V0.0434558ZM185.817 301.404L144.008 265.592L151.188 186.958C151.41 184.703 151.162 182.427 150.46 180.273C149.758 178.119 148.617 176.134 147.109 174.444C145.601 172.753 143.758 171.394 141.698 170.451C139.638 169.509 137.405 169.003 135.14 168.968C130.678 169.06 126.243 168.249 122.103 166.583C117.962 164.918 114.201 162.433 111.045 159.277C107.89 156.122 105.404 152.36 103.739 148.22C102.074 144.079 101.263 139.645 101.355 135.183C110.429 135.203 119.39 133.17 127.567 129.235C135.743 125.3 142.923 119.566 148.569 112.463L153.721 106.043C157.004 101.9 161.193 98.5653 165.966 96.2956C170.74 94.0259 175.971 92.882 181.256 92.9518H184.803C194.025 92.9757 202.862 96.6502 209.382 103.172C212.626 106.389 215.2 110.218 216.954 114.437C218.709 118.656 219.608 123.181 219.602 127.75V168.968C219.602 173.448 217.822 177.744 214.654 180.912C211.486 184.08 207.19 185.86 202.709 185.86C198.229 185.86 193.933 184.08 190.765 180.912C187.597 177.744 185.817 173.448 185.817 168.968V118.29C185.817 116.05 184.927 113.902 183.343 112.318C181.759 110.734 179.611 109.844 177.371 109.844C175.131 109.844 172.982 110.734 171.398 112.318C169.814 113.902 168.925 116.05 168.925 118.29V168.968C168.917 175.833 171.002 182.538 174.901 188.189C178.799 193.84 184.327 198.169 190.748 200.6C197.169 203.031 204.178 203.448 210.841 201.795C217.505 200.143 223.507 196.499 228.048 191.35C232.447 208.859 238.705 225.848 246.714 242.027L249.501 247.517L185.817 301.404ZM310.314 194.729L262.424 235.777L261.58 234.088C245.047 201.07 236.375 164.676 236.241 127.75V126.737C236.019 113.204 230.482 100.303 220.825 90.8203C211.168 81.3376 198.169 76.0353 184.635 76.0593H181.087C173.329 76.0489 165.669 77.7905 158.679 81.1543C151.688 84.518 145.547 89.4169 140.714 95.4856L135.562 101.905C131.472 107.046 126.268 111.193 120.343 114.031C114.417 116.869 107.925 118.326 101.355 118.29C96.8748 118.29 92.5781 120.07 89.4102 123.238C86.2422 126.406 84.4625 130.703 84.4625 135.183C84.4174 141.747 85.6784 148.254 88.1721 154.326C90.6658 160.398 94.3423 165.913 98.9877 170.55C103.633 175.188 109.154 178.855 115.23 181.338C121.307 183.822 127.816 185.072 134.38 185.015L128.298 251.825L61.3199 194.391C47.4282 182.478 36.2686 167.711 28.6017 151.094C20.9349 134.478 16.9412 116.404 16.8928 98.104C16.8938 82.0562 21.6517 66.3689 30.5654 53.0244C39.479 39.6799 52.1483 29.2771 66.9723 23.1306C81.7962 16.984 98.1095 15.3697 113.851 18.4915C129.592 21.6133 144.054 29.3311 155.411 40.6697L179.82 65.1637C180.605 65.9554 181.54 66.5837 182.569 67.0125C183.598 67.4413 184.702 67.6621 185.817 67.6621C186.932 67.6621 188.036 67.4413 189.065 67.0125C190.094 66.5837 191.029 65.9554 191.814 65.1637L216.223 40.6697C227.58 29.3311 242.042 21.6133 257.783 18.4915C273.524 15.3697 289.838 16.984 304.662 23.1306C319.486 29.2771 332.155 39.6799 341.069 53.0244C349.982 66.3689 354.74 82.0562 354.741 98.104C354.741 116.461 350.771 134.6 343.103 151.279C335.434 167.957 324.249 182.779 310.314 194.729Z" fill="#FF5B2E"/>
<path d="M474.5 186C472.833 186 471.417 185.417 470.25 184.25C469.083 183.083 468.5 181.667 468.5 180V17.25C468.5 15.4167 469 13.9167 470 12.75C471.167 11.5833 472.667 11 474.5 11H547C566.5 11 581 15.3333 590.5 24C600.167 32.5 605 44.1667 605 59C605 67.6667 602.833 75.0833 598.5 81.25C594.333 87.25 589.417 91.5833 583.75 94.25C590.75 97.4167 596.583 102.583 601.25 109.75C606.083 116.917 608.5 125.083 608.5 134.25C608.5 149.75 603.25 162.25 592.75 171.75C582.417 181.25 567.833 186 549 186H474.5ZM542.5 82.75C551.167 82.75 557.75 80.6667 562.25 76.5C566.75 72.3333 569 66.75 569 59.75C569 52.5833 566.75 47.0833 562.25 43.25C557.75 39.25 551.167 37.25 542.5 37.25H503.25V82.75H542.5ZM545 159.5C553.667 159.5 560.417 157.167 565.25 152.5C570.083 147.667 572.5 141.583 572.5 134.25C572.5 126.75 570.083 120.667 565.25 116C560.417 111.167 553.667 108.75 545 108.75H503.25V159.5H545ZM692.887 188.5C674.387 188.5 659.637 183.167 648.637 172.5C637.803 161.667 632.053 146.5 631.387 127L631.137 120.75L631.387 114.5C632.22 95.5 638.053 80.5833 648.887 69.75C659.887 58.9167 674.553 53.5 692.887 53.5C712.553 53.5 727.72 59.5 738.387 71.5C749.22 83.5 754.637 99.5 754.637 119.5V124.75C754.637 126.417 754.053 127.833 752.887 129C751.72 130.167 750.22 130.75 748.387 130.75H665.387V132.75C665.72 141.917 668.22 149.667 672.887 156C677.72 162.167 684.303 165.25 692.637 165.25C702.47 165.25 710.387 161.417 716.387 153.75C717.887 151.917 719.053 150.75 719.887 150.25C720.887 149.75 722.303 149.5 724.137 149.5H745.637C747.137 149.5 748.387 150 749.387 151C750.553 151.833 751.137 152.917 751.137 154.25C751.137 158.25 748.72 163 743.887 168.5C739.22 173.833 732.47 178.5 723.637 182.5C714.803 186.5 704.553 188.5 692.887 188.5ZM720.637 109.75V109C720.637 99.1667 718.137 91.25 713.137 85.25C708.303 79.25 701.553 76.25 692.887 76.25C684.22 76.25 677.47 79.25 672.637 85.25C667.803 91.25 665.387 99.1667 665.387 109V109.75H720.637ZM830.424 188.5C817.924 188.5 807.424 186.667 798.924 183C790.424 179.167 784.09 174.75 779.924 169.75C775.924 164.583 773.924 160.167 773.924 156.5C773.924 154.833 774.507 153.5 775.674 152.5C776.84 151.5 778.174 151 779.674 151H799.424C800.924 151 802.174 151.583 803.174 152.75C803.84 153.25 805.59 154.75 808.424 157.25C811.257 159.917 814.59 162 818.424 163.5C822.257 165 826.507 165.75 831.174 165.75C837.84 165.75 843.341 164.417 847.674 161.75C852.007 159.083 854.174 155.417 854.174 150.75C854.174 147.25 853.174 144.417 851.174 142.25C849.34 140.083 845.924 138.167 840.924 136.5C835.924 134.667 828.507 132.75 818.674 130.75C804.507 127.75 794.007 123.167 787.174 117C780.507 110.833 777.174 102.667 777.174 92.5C777.174 85.8333 779.174 79.5833 783.174 73.75C787.174 67.75 793.09 62.9167 800.924 59.25C808.924 55.4167 818.424 53.5 829.424 53.5C840.59 53.5 850.257 55.3333 858.424 59C866.591 62.5 872.757 66.75 876.924 71.75C881.257 76.5833 883.424 80.9167 883.424 84.75C883.424 86.25 882.841 87.5833 881.674 88.75C880.674 89.75 879.424 90.25 877.924 90.25H859.424C858.09 90.25 856.674 89.6667 855.174 88.5C854.007 87.6667 852.174 86.0833 849.674 83.75C847.174 81.4167 844.257 79.5833 840.924 78.25C837.59 76.9167 833.674 76.25 829.174 76.25C823.007 76.25 818.174 77.5833 814.674 80.25C811.34 82.9167 809.674 86.4167 809.674 90.75C809.674 93.9167 810.507 96.5 812.174 98.5C813.84 100.5 817.09 102.417 821.924 104.25C826.757 106.083 834.007 107.917 843.674 109.75C859.674 112.917 871.091 117.833 877.924 124.5C884.924 131.167 888.424 139.333 888.424 149C888.424 160.667 883.341 170.167 873.174 177.5C863.007 184.833 848.757 188.5 830.424 188.5ZM972.492 186C957.326 186 945.909 182.083 938.242 174.25C930.742 166.25 926.992 154.583 926.992 139.25V82.5H907.242C905.576 82.5 904.159 81.9167 902.992 80.75C901.826 79.4167 901.242 77.9167 901.242 76.25V62C901.242 60.3333 901.826 58.9167 902.992 57.75C904.159 56.5833 905.576 56 907.242 56H926.992V14.5C926.992 12.6667 927.576 11.25 928.742 10.25C929.909 9.08333 931.326 8.49999 932.992 8.49999H953.242C955.076 8.49999 956.492 9.08333 957.492 10.25C958.659 11.25 959.242 12.6667 959.242 14.5V56H990.492C992.326 56 993.742 56.5833 994.742 57.75C995.909 58.75 996.492 60.1667 996.492 62V76.25C996.492 78.0833 995.909 79.5833 994.742 80.75C993.576 81.9167 992.159 82.5 990.492 82.5H959.242V136.75C959.242 143.917 960.492 149.333 962.992 153C965.492 156.667 969.659 158.5 975.492 158.5H992.742C994.409 158.5 995.826 159.083 996.992 160.25C998.159 161.417 998.742 162.833 998.742 164.5V180C998.742 181.667 998.159 183.083 996.992 184.25C995.992 185.417 994.576 186 992.742 186H972.492ZM1096.81 186C1095.15 186 1093.73 185.417 1092.56 184.25C1091.4 183.083 1090.81 181.667 1090.81 180V17.25C1090.81 15.4167 1091.31 13.9167 1092.31 12.75C1093.48 11.5833 1094.98 11 1096.81 11H1163.81C1183.81 11 1199.56 15.75 1211.06 25.25C1222.56 34.5833 1228.31 48.3333 1228.31 66.5C1228.31 84.6667 1222.56 98.4167 1211.06 107.75C1199.73 116.917 1183.98 121.5 1163.81 121.5H1126.56V180C1126.56 181.667 1125.98 183.083 1124.81 184.25C1123.81 185.417 1122.4 186 1120.56 186H1096.81ZM1162.56 93.75C1172.23 93.75 1179.65 91.5 1184.81 87C1189.98 82.3333 1192.56 75.5 1192.56 66.5C1192.56 57.8333 1190.06 51.0833 1185.06 46.25C1180.06 41.25 1172.56 38.75 1162.56 38.75H1126.06V93.75H1162.56ZM1306.9 188.5C1288.4 188.5 1273.65 183.167 1262.65 172.5C1251.82 161.667 1246.07 146.5 1245.4 127L1245.15 120.75L1245.4 114.5C1246.23 95.5 1252.07 80.5833 1262.9 69.75C1273.9 58.9167 1288.57 53.5 1306.9 53.5C1326.57 53.5 1341.73 59.5 1352.4 71.5C1363.23 83.5 1368.65 99.5 1368.65 119.5V124.75C1368.65 126.417 1368.07 127.833 1366.9 129C1365.73 130.167 1364.23 130.75 1362.4 130.75H1279.4V132.75C1279.73 141.917 1282.23 149.667 1286.9 156C1291.73 162.167 1298.32 165.25 1306.65 165.25C1316.48 165.25 1324.4 161.417 1330.4 153.75C1331.9 151.917 1333.07 150.75 1333.9 150.25C1334.9 149.75 1336.32 149.5 1338.15 149.5H1359.65C1361.15 149.5 1362.4 150 1363.4 151C1364.57 151.833 1365.15 152.917 1365.15 154.25C1365.15 158.25 1362.73 163 1357.9 168.5C1353.23 173.833 1346.48 178.5 1337.65 182.5C1328.82 186.5 1318.57 188.5 1306.9 188.5ZM1334.65 109.75V109C1334.65 99.1667 1332.15 91.25 1327.15 85.25C1322.32 79.25 1315.57 76.25 1306.9 76.25C1298.23 76.25 1291.48 79.25 1286.65 85.25C1281.82 91.25 1279.4 99.1667 1279.4 109V109.75H1334.65ZM1453.45 186C1438.28 186 1426.87 182.083 1419.2 174.25C1411.7 166.25 1407.95 154.583 1407.95 139.25V82.5H1388.2C1386.53 82.5 1385.12 81.9167 1383.95 80.75C1382.78 79.4167 1382.2 77.9167 1382.2 76.25V62C1382.2 60.3333 1382.78 58.9167 1383.95 57.75C1385.12 56.5833 1386.53 56 1388.2 56H1407.95V14.5C1407.95 12.6667 1408.53 11.25 1409.7 10.25C1410.87 9.08333 1412.28 8.49999 1413.95 8.49999H1434.2C1436.03 8.49999 1437.45 9.08333 1438.45 10.25C1439.62 11.25 1440.2 12.6667 1440.2 14.5V56H1471.45C1473.28 56 1474.7 56.5833 1475.7 57.75C1476.87 58.75 1477.45 60.1667 1477.45 62V76.25C1477.45 78.0833 1476.87 79.5833 1475.7 80.75C1474.53 81.9167 1473.12 82.5 1471.45 82.5H1440.2V136.75C1440.2 143.917 1441.45 149.333 1443.95 153C1446.45 156.667 1450.62 158.5 1456.45 158.5H1473.7C1475.37 158.5 1476.78 159.083 1477.95 160.25C1479.12 161.417 1479.7 162.833 1479.7 164.5V180C1479.7 181.667 1479.12 183.083 1477.95 184.25C1476.95 185.417 1475.53 186 1473.7 186H1453.45Z" fill="#040F73"/>
<path d="M1025.42 186C1023.75 186 1022.34 185.417 1021.17 184.25C1020 183.083 1019.42 181.667 1019.42 180V155.25C1019.42 153.583 1020 152.167 1021.17 151C1022.34 149.667 1023.75 149 1025.42 149H1050.42C1052.09 149 1053.5 149.667 1054.67 151C1055.84 152.167 1056.42 153.583 1056.42 155.25V180C1056.42 181.667 1055.84 183.083 1054.67 184.25C1053.5 185.417 1052.09 186 1050.42 186H1025.42Z" fill="#FF5B2E"/>
<path d="M471.8 325.525C468.3 325.525 465.15 324.925 462.35 323.725C459.55 322.475 457.35 320.725 455.75 318.475C454.15 316.225 453.35 313.6 453.35 310.6H462.5C462.7 312.85 463.575 314.7 465.125 316.15C466.725 317.6 468.95 318.325 471.8 318.325C474.75 318.325 477.05 317.625 478.7 316.225C480.35 314.775 481.175 312.925 481.175 310.675C481.175 308.925 480.65 307.5 479.6 306.4C478.6 305.3 477.325 304.45 475.775 303.85C474.275 303.25 472.175 302.6 469.475 301.9C466.075 301 463.3 300.1 461.15 299.2C459.05 298.25 457.25 296.8 455.75 294.85C454.25 292.9 453.5 290.3 453.5 287.05C453.5 284.05 454.25 281.425 455.75 279.175C457.25 276.925 459.35 275.2 462.05 274C464.75 272.8 467.875 272.2 471.425 272.2C476.475 272.2 480.6 273.475 483.8 276.025C487.05 278.525 488.85 281.975 489.2 286.375H479.75C479.6 284.475 478.7 282.85 477.05 281.5C475.4 280.15 473.225 279.475 470.525 279.475C468.075 279.475 466.075 280.1 464.525 281.35C462.975 282.6 462.2 284.4 462.2 286.75C462.2 288.35 462.675 289.675 463.625 290.725C464.625 291.725 465.875 292.525 467.375 293.125C468.875 293.725 470.925 294.375 473.525 295.075C476.975 296.025 479.775 296.975 481.925 297.925C484.125 298.875 485.975 300.35 487.475 302.35C489.025 304.3 489.8 306.925 489.8 310.225C489.8 312.875 489.075 315.375 487.625 317.725C486.225 320.075 484.15 321.975 481.4 323.425C478.7 324.825 475.5 325.525 471.8 325.525ZM536.189 314.35H514.364L510.614 325H501.689L520.364 272.8H530.264L548.939 325H539.939L536.189 314.35ZM533.789 307.375L525.314 283.15L516.764 307.375H533.789ZM592.609 272.875V279.85H570.484V295.225H587.734V302.2H570.484V325H561.934V272.875H592.609ZM613.957 279.775V295.075H631.957V302.05H613.957V318.025H634.207V325H605.407V272.8H634.207V279.775H613.957ZM705.396 314.35H683.571L679.821 325H670.896L689.571 272.8H699.471L718.146 325H709.146L705.396 314.35ZM702.996 307.375L694.521 283.15L685.971 307.375H702.996ZM773.966 325H765.416L739.691 286.075V325H731.141V272.8H739.691L765.416 311.65V272.8H773.966V325ZM807.093 272.875C812.643 272.875 817.493 273.95 821.643 276.1C825.843 278.2 829.068 281.25 831.318 285.25C833.618 289.2 834.768 293.825 834.768 299.125C834.768 304.425 833.618 309.025 831.318 312.925C829.068 316.825 825.843 319.825 821.643 321.925C817.493 323.975 812.643 325 807.093 325H790.068V272.875H807.093ZM807.093 318.025C813.193 318.025 817.868 316.375 821.118 313.075C824.368 309.775 825.993 305.125 825.993 299.125C825.993 293.075 824.368 288.35 821.118 284.95C817.868 281.55 813.193 279.85 807.093 279.85H798.618V318.025H807.093ZM869.625 298.825C869.625 293.725 870.8 289.15 873.15 285.1C875.55 281.05 878.775 277.9 882.825 275.65C886.925 273.35 891.4 272.2 896.25 272.2C901.8 272.2 906.725 273.575 911.025 276.325C915.375 279.025 918.525 282.875 920.475 287.875H910.2C908.85 285.125 906.975 283.075 904.575 281.725C902.175 280.375 899.4 279.7 896.25 279.7C892.8 279.7 889.725 280.475 887.025 282.025C884.325 283.575 882.2 285.8 880.65 288.7C879.15 291.6 878.4 294.975 878.4 298.825C878.4 302.675 879.15 306.05 880.65 308.95C882.2 311.85 884.325 314.1 887.025 315.7C889.725 317.25 892.8 318.025 896.25 318.025C899.4 318.025 902.175 317.35 904.575 316C906.975 314.65 908.85 312.6 910.2 309.85H920.475C918.525 314.85 915.375 318.7 911.025 321.4C906.725 324.1 901.8 325.45 896.25 325.45C891.35 325.45 886.875 324.325 882.825 322.075C878.775 319.775 875.55 316.6 873.15 312.55C870.8 308.5 869.625 303.925 869.625 298.825ZM966.782 314.35H944.957L941.207 325H932.282L950.957 272.8H960.857L979.532 325H970.532L966.782 314.35ZM964.382 307.375L955.907 283.15L947.357 307.375H964.382ZM1019.6 325L1007.6 304.15H1001.08V325H992.527V272.875H1010.53C1014.53 272.875 1017.9 273.575 1020.65 274.975C1023.45 276.375 1025.53 278.25 1026.88 280.6C1028.28 282.95 1028.98 285.575 1028.98 288.475C1028.98 291.875 1027.98 294.975 1025.98 297.775C1024.03 300.525 1021 302.4 1016.9 303.4L1029.8 325H1019.6ZM1001.08 297.325H1010.53C1013.73 297.325 1016.13 296.525 1017.73 294.925C1019.38 293.325 1020.2 291.175 1020.2 288.475C1020.2 285.775 1019.4 283.675 1017.8 282.175C1016.2 280.625 1013.78 279.85 1010.53 279.85H1001.08V297.325ZM1053.34 272.875V325H1044.79V272.875H1053.34ZM1112.27 325H1103.72L1077.99 286.075V325H1069.44V272.8H1077.99L1103.72 311.65V272.8H1112.27V325ZM1166.09 287.875C1164.74 285.275 1162.87 283.325 1160.47 282.025C1158.07 280.675 1155.29 280 1152.14 280C1148.69 280 1145.62 280.775 1142.92 282.325C1140.22 283.875 1138.09 286.075 1136.54 288.925C1135.04 291.775 1134.29 295.075 1134.29 298.825C1134.29 302.575 1135.04 305.9 1136.54 308.8C1138.09 311.65 1140.22 313.85 1142.92 315.4C1145.62 316.95 1148.69 317.725 1152.14 317.725C1156.79 317.725 1160.57 316.425 1163.47 313.825C1166.37 311.225 1168.14 307.7 1168.79 303.25H1149.22V296.425H1177.94V303.1C1177.39 307.15 1175.94 310.875 1173.59 314.275C1171.29 317.675 1168.27 320.4 1164.52 322.45C1160.82 324.45 1156.69 325.45 1152.14 325.45C1147.24 325.45 1142.77 324.325 1138.72 322.075C1134.67 319.775 1131.44 316.6 1129.04 312.55C1126.69 308.5 1125.52 303.925 1125.52 298.825C1125.52 293.725 1126.69 289.15 1129.04 285.1C1131.44 281.05 1134.67 277.9 1138.72 275.65C1142.82 273.35 1147.29 272.2 1152.14 272.2C1157.69 272.2 1162.62 273.575 1166.92 276.325C1171.27 279.025 1174.42 282.875 1176.37 287.875H1166.09ZM1257.23 272.875V325H1248.68V302.2H1224.16V325H1215.61V272.875H1224.16V295.225H1248.68V272.875H1257.23ZM1304.79 314.35H1282.96L1279.21 325H1270.29L1288.96 272.8H1298.86L1317.54 325H1308.54L1304.79 314.35ZM1302.39 307.375L1293.91 283.15L1285.36 307.375H1302.39ZM1373.36 325H1364.81L1339.08 286.075V325H1330.53V272.8H1339.08L1364.81 311.65V272.8H1373.36V325ZM1406.49 272.875C1412.04 272.875 1416.89 273.95 1421.04 276.1C1425.24 278.2 1428.46 281.25 1430.71 285.25C1433.01 289.2 1434.16 293.825 1434.16 299.125C1434.16 304.425 1433.01 309.025 1430.71 312.925C1428.46 316.825 1425.24 319.825 1421.04 321.925C1416.89 323.975 1412.04 325 1406.49 325H1389.46V272.875H1406.49ZM1406.49 318.025C1412.59 318.025 1417.26 316.375 1420.51 313.075C1423.76 309.775 1425.39 305.125 1425.39 299.125C1425.39 293.075 1423.76 288.35 1420.51 284.95C1417.26 281.55 1412.59 279.85 1406.49 279.85H1398.01V318.025H1406.49ZM1464.69 325.525C1461.19 325.525 1458.04 324.925 1455.24 323.725C1452.44 322.475 1450.24 320.725 1448.64 318.475C1447.04 316.225 1446.24 313.6 1446.24 310.6H1455.39C1455.59 312.85 1456.46 314.7 1458.01 316.15C1459.61 317.6 1461.84 318.325 1464.69 318.325C1467.64 318.325 1469.94 317.625 1471.59 316.225C1473.24 314.775 1474.06 312.925 1474.06 310.675C1474.06 308.925 1473.54 307.5 1472.49 306.4C1471.49 305.3 1470.21 304.45 1468.66 303.85C1467.16 303.25 1465.06 302.6 1462.36 301.9C1458.96 301 1456.19 300.1 1454.04 299.2C1451.94 298.25 1450.14 296.8 1448.64 294.85C1447.14 292.9 1446.39 290.3 1446.39 287.05C1446.39 284.05 1447.14 281.425 1448.64 279.175C1450.14 276.925 1452.24 275.2 1454.94 274C1457.64 272.8 1460.76 272.2 1464.31 272.2C1469.36 272.2 1473.49 273.475 1476.69 276.025C1479.94 278.525 1481.74 281.975 1482.09 286.375H1472.64C1472.49 284.475 1471.59 282.85 1469.94 281.5C1468.29 280.15 1466.11 279.475 1463.41 279.475C1460.96 279.475 1458.96 280.1 1457.41 281.35C1455.86 282.6 1455.09 284.4 1455.09 286.75C1455.09 288.35 1455.56 289.675 1456.51 290.725C1457.51 291.725 1458.76 292.525 1460.26 293.125C1461.76 293.725 1463.81 294.375 1466.41 295.075C1469.86 296.025 1472.66 296.975 1474.81 297.925C1477.01 298.875 1478.86 300.35 1480.36 302.35C1481.91 304.3 1482.69 306.925 1482.69 310.225C1482.69 312.875 1481.96 315.375 1480.51 317.725C1479.11 320.075 1477.04 321.975 1474.29 323.425C1471.59 324.825 1468.39 325.525 1464.69 325.525Z" fill="#040F73" fill-opacity="0.7"/>
</svg>
